<mxfile host="app.diagrams.net" modified="2021-05-24T15:55:43.149Z" agent="5.0 (Macintosh; Intel Mac OS X 10_15_6) AppleWebKit/605.1.15 (KHTML, like Gecko) Version/14.0.3 Safari/605.1.15" etag="C0pXhqL8RFHq_OpZ0uoz" version="14.6.11" type="github">
  <diagram id="nRy3mxxZtw4buz802-MD" name="第 1 页">
    <mxGraphModel dx="946" dy="558" grid="1" gridSize="10" guides="1" tooltips="1" connect="1" arrows="1" fold="1" page="1" pageScale="1" pageWidth="827" pageHeight="1169" math="0" shadow="0">
      <root>
        <mxCell id="0" />
        <mxCell id="1" parent="0" />
        <mxCell id="22XjKF7W-I9oP9eLqrQx-1" value="" style="rounded=0;whiteSpace=wrap;html=1;fontSize=16;" vertex="1" parent="1">
          <mxGeometry x="330" y="200" width="120" height="110" as="geometry" />
        </mxCell>
        <mxCell id="22XjKF7W-I9oP9eLqrQx-2" value="" style="rounded=0;whiteSpace=wrap;html=1;fontSize=16;" vertex="1" parent="1">
          <mxGeometry x="140" y="190" width="100" height="160" as="geometry" />
        </mxCell>
        <mxCell id="22XjKF7W-I9oP9eLqrQx-3" style="rounded=0;orthogonalLoop=1;jettySize=auto;html=1;entryX=0;entryY=0.5;entryDx=0;entryDy=0;dashed=1;fontSize=16;" edge="1" parent="1" source="22XjKF7W-I9oP9eLqrQx-4" target="22XjKF7W-I9oP9eLqrQx-8">
          <mxGeometry relative="1" as="geometry" />
        </mxCell>
        <mxCell id="22XjKF7W-I9oP9eLqrQx-4" value="" style="rounded=0;whiteSpace=wrap;html=1;fontSize=16;strokeColor=#6c8ebf;fillColor=#dae8fc;" vertex="1" parent="1">
          <mxGeometry x="140" y="240" width="100" height="40" as="geometry" />
        </mxCell>
        <mxCell id="22XjKF7W-I9oP9eLqrQx-5" value="父进程虚拟内存" style="text;html=1;align=center;verticalAlign=middle;resizable=0;points=[];autosize=1;strokeColor=none;fontSize=16;" vertex="1" parent="1">
          <mxGeometry x="125" y="360" width="130" height="20" as="geometry" />
        </mxCell>
        <mxCell id="22XjKF7W-I9oP9eLqrQx-6" value="页表" style="text;html=1;align=center;verticalAlign=middle;resizable=0;points=[];autosize=1;strokeColor=none;fontSize=16;" vertex="1" parent="1">
          <mxGeometry x="365" y="320" width="50" height="20" as="geometry" />
        </mxCell>
        <mxCell id="22XjKF7W-I9oP9eLqrQx-7" style="rounded=0;orthogonalLoop=1;jettySize=auto;html=1;entryX=0;entryY=0.5;entryDx=0;entryDy=0;exitX=1;exitY=0.25;exitDx=0;exitDy=0;dashed=1;fontSize=16;" edge="1" parent="1" source="22XjKF7W-I9oP9eLqrQx-8" target="22XjKF7W-I9oP9eLqrQx-11">
          <mxGeometry relative="1" as="geometry" />
        </mxCell>
        <mxCell id="22XjKF7W-I9oP9eLqrQx-8" value="" style="rounded=0;whiteSpace=wrap;html=1;fontSize=16;fillColor=#fff2cc;strokeColor=#d6b656;" vertex="1" parent="1">
          <mxGeometry x="330" y="250" width="120" height="20" as="geometry" />
        </mxCell>
        <mxCell id="22XjKF7W-I9oP9eLqrQx-9" value="" style="rounded=0;whiteSpace=wrap;html=1;fontSize=16;" vertex="1" parent="1">
          <mxGeometry x="540" y="180" width="100" height="340" as="geometry" />
        </mxCell>
        <mxCell id="22XjKF7W-I9oP9eLqrQx-10" style="edgeStyle=orthogonalEdgeStyle;rounded=0;orthogonalLoop=1;jettySize=auto;html=1;entryX=1;entryY=0.75;entryDx=0;entryDy=0;fontSize=16;exitX=1;exitY=0.5;exitDx=0;exitDy=0;curved=1;strokeWidth=2;fillColor=#f8cecc;strokeColor=#b85450;" edge="1" parent="1" source="22XjKF7W-I9oP9eLqrQx-11" target="22XjKF7W-I9oP9eLqrQx-22">
          <mxGeometry relative="1" as="geometry">
            <Array as="points">
              <mxPoint x="680" y="350" />
              <mxPoint x="680" y="450" />
            </Array>
          </mxGeometry>
        </mxCell>
        <mxCell id="22XjKF7W-I9oP9eLqrQx-11" value="" style="rounded=0;whiteSpace=wrap;html=1;fontSize=16;fillColor=#fff2cc;strokeColor=#d6b656;gradientColor=#ffd966;" vertex="1" parent="1">
          <mxGeometry x="540" y="330" width="100" height="40" as="geometry" />
        </mxCell>
        <mxCell id="22XjKF7W-I9oP9eLqrQx-12" value="物理内存" style="text;html=1;align=center;verticalAlign=middle;resizable=0;points=[];autosize=1;strokeColor=none;fontSize=16;" vertex="1" parent="1">
          <mxGeometry x="550" y="530" width="80" height="20" as="geometry" />
        </mxCell>
        <mxCell id="22XjKF7W-I9oP9eLqrQx-13" value="" style="rounded=0;whiteSpace=wrap;html=1;fontSize=16;" vertex="1" parent="1">
          <mxGeometry x="330" y="470" width="120" height="110" as="geometry" />
        </mxCell>
        <mxCell id="22XjKF7W-I9oP9eLqrQx-14" value="" style="rounded=0;whiteSpace=wrap;html=1;fontSize=16;" vertex="1" parent="1">
          <mxGeometry x="140" y="460" width="100" height="160" as="geometry" />
        </mxCell>
        <mxCell id="22XjKF7W-I9oP9eLqrQx-15" style="rounded=0;orthogonalLoop=1;jettySize=auto;html=1;entryX=0;entryY=0.5;entryDx=0;entryDy=0;dashed=1;fontSize=16;" edge="1" parent="1" source="22XjKF7W-I9oP9eLqrQx-16" target="22XjKF7W-I9oP9eLqrQx-20">
          <mxGeometry relative="1" as="geometry" />
        </mxCell>
        <mxCell id="22XjKF7W-I9oP9eLqrQx-16" value="" style="rounded=0;whiteSpace=wrap;html=1;fontSize=16;strokeColor=#36393d;fillColor=#cce5ff;" vertex="1" parent="1">
          <mxGeometry x="140" y="510" width="100" height="40" as="geometry" />
        </mxCell>
        <mxCell id="22XjKF7W-I9oP9eLqrQx-17" value="子进程虚拟内存" style="text;html=1;align=center;verticalAlign=middle;resizable=0;points=[];autosize=1;strokeColor=none;fontSize=16;" vertex="1" parent="1">
          <mxGeometry x="125" y="630" width="130" height="20" as="geometry" />
        </mxCell>
        <mxCell id="22XjKF7W-I9oP9eLqrQx-18" value="页表" style="text;html=1;align=center;verticalAlign=middle;resizable=0;points=[];autosize=1;strokeColor=none;fontSize=16;" vertex="1" parent="1">
          <mxGeometry x="365" y="590" width="50" height="20" as="geometry" />
        </mxCell>
        <mxCell id="22XjKF7W-I9oP9eLqrQx-19" style="edgeStyle=none;rounded=0;orthogonalLoop=1;jettySize=auto;html=1;entryX=0;entryY=0.75;entryDx=0;entryDy=0;exitX=1;exitY=0.5;exitDx=0;exitDy=0;dashed=1;fontSize=16;" edge="1" parent="1" source="22XjKF7W-I9oP9eLqrQx-20" target="22XjKF7W-I9oP9eLqrQx-9">
          <mxGeometry relative="1" as="geometry" />
        </mxCell>
        <mxCell id="22XjKF7W-I9oP9eLqrQx-20" value="" style="rounded=0;whiteSpace=wrap;html=1;fontSize=16;fillColor=#ffcc99;strokeColor=#36393d;" vertex="1" parent="1">
          <mxGeometry x="330" y="520" width="120" height="20" as="geometry" />
        </mxCell>
        <mxCell id="22XjKF7W-I9oP9eLqrQx-21" value="写时复制" style="text;html=1;align=center;verticalAlign=middle;resizable=0;points=[];autosize=1;strokeColor=#36393d;fontSize=16;fillColor=#ffff88;" vertex="1" parent="1">
          <mxGeometry x="690" y="400" width="80" height="20" as="geometry" />
        </mxCell>
        <mxCell id="22XjKF7W-I9oP9eLqrQx-22" value="" style="rounded=0;whiteSpace=wrap;html=1;fontSize=16;fillColor=#fff2cc;strokeColor=#d6b656;gradientColor=#ffd966;" vertex="1" parent="1">
          <mxGeometry x="540" y="420" width="100" height="40" as="geometry" />
        </mxCell>
      </root>
    </mxGraphModel>
  </diagram>
</mxfile>
